SplineFontDB: 3.0
FontName: gregorio-base
FullName: gregorio
FamilyName: gregorio
Weight: Medium
Copyright: gregorio font, created with FontForge.\nCopyright (C) 2007 Elie Roux <elie.roux@enst-bretagne.fr>\n\nThis program is free software: you can redistribute it and/or modify\nit under the terms of the GNU General Public License as published by\nthe Free Software Foundation, either version 3 of the License, or\n(at your option) any later version.\n\nThis program is distributed in the hope that it will be useful,\nbut WITHOUT ANY WARRANTY; without even the implied warranty of\nMERCHANTABILITY or FITNESS FOR A PARTICULAR PURPOSE.  See the\nGNU General Public License for more details.\n\nYou should have received a copy of the GNU General Public License\nalong with this program.  If not, see <http://www.gnu.org/licenses/>.\n\nAs a special exception, if you create a document which uses this font, and embed this font or unaltered portions of this font into the document, this font does not by itself cause the resulting document to be covered by the GNU General Public License. This exception does not however invalidate any other reasons why the document might be covered by the GNU General Public License. If you modify this font, you may extend this exception to your version of the font, but you are not obligated to do so. If you do not wish to do so, delete this exception statement from your version.
UComments: "2007-4-12: Created." 
Version: 1.2
ItalicAngle: 0
UnderlinePosition: -204
UnderlineWidth: 102
Ascent: 800
Descent: 200
LayerCount: 2
Layer: 0 0 "Back"  1
Layer: 1 0 "Fore"  0
XUID: [1021 341 828717519 16122349]
OS2Version: 0
OS2_WeightWidthSlopeOnly: 0
OS2_UseTypoMetrics: 1
CreationTime: 1176402534
ModificationTime: 1420487112
OS2TypoAscent: 0
OS2TypoAOffset: 1
OS2TypoDescent: 0
OS2TypoDOffset: 1
OS2TypoLinegap: 0
OS2WinAscent: 0
OS2WinAOffset: 1
OS2WinDescent: 0
OS2WinDOffset: 1
HheadAscent: 0
HheadAOffset: 1
HheadDescent: 0
HheadDOffset: 1
OS2Vendor: 'PfEd'

StartChar: _0017
Encoding: 0 66 0
Width: 164
VWidth: 2048
Flags: HW
HStem: -409 15 -94 15 221 15 536 15
LayerCount: 2
Fore
SplineSet
82 166 m 28
 114.583 166 144 158 164 150 c 13
 164 -10 l 4
 149 0.958008 118 9 82 9 c 4
 47 9 15 0.65625 0 -10 c 5
 0 150 l 4
 20 161 49.417 166 82 166 c 28
EndSplineSet
Validated: 1
EndChar

StartChar: _0019
Encoding: 1 67 1
Width: 164
VWidth: 2048
Flags: HW
HStem: -409 15 -94 15 221 15 536 15
LayerCount: 2
Fore
SplineSet
71.6055 191.61 m 5
 85.1445 178.468 146.51 109.418 163.482 91.2812 c 5
 141.391 54.2412 114.347 6.59375 94.8916 -32.9795 c 5
 69.3857 -17.626 12.6895 45.1592 0.0732422 75.707 c 5
 5.4834 99.8564 57.748 176.531 71.6055 191.61 c 5
EndSplineSet
EndChar

StartChar: _0020
Encoding: 2 68 2
Width: 164
VWidth: 2048
Flags: HW
HStem: -409 15 -94 15 221 15 536 15
LayerCount: 2
Fore
SplineSet
58.5 163.504 m 1
 110.666 123.337 152.283 81.334 164 62 c 1
 154.5 13 111 -30.3301 96.0059 -47.3262 c 1
 92.5059 -51.3262 73 -67.4961 84 -43.9961 c 1
 90.667 -22.6631 77.334 -9.99414 67.333 1.33789 c 0
 55.8369 14.3633 26.666 40.6729 0 56.6709 c 1
 5.66699 68.5049 51.333 146.337 58.5 163.504 c 1
EndSplineSet
Validated: 33
EndChar

StartChar: _0026
Encoding: 3 69 3
Width: 164
VWidth: 2048
Flags: HW
HStem: -409 15 -94 15 221 15 536 15
LayerCount: 2
Fore
SplineSet
0.155273 154.667 m 1
 0.332489 154.677 0.508012 154.682 0.681873 154.682 c 0
 16.8374 154.682 18.634 112.202 30.001 102.803 c 1
 44.5117 112.303 34.6667 183.333 57.165 183.335 c 1
 78 183.333 75.3333 120 87.1562 114.5 c 1
 101.304 122.65 98.0135 203.67 117.045 203.67 c 0
 117.161 203.669 l 1
 117.349 203.671 l 0
 136.622 203.671 129.711 152.984 146.667 148 c 1
 157.333 152 160.511 156.667 164 160.669 c 1
 164.004 35.333 l 1
 164.004 35.269 l 0
 164.004 32.918 164.033 30.5496 164.033 28.1992 c 0
 164.033 12.9064 162.803 -1.62662 144.336 -5.66699 c 1
 120.332 -1.00781 134.667 34 117.003 40.999 c 1
 100.995 32.9961 114 -30 86.0068 -34.001 c 1
 58.6667 -30 72.2695 8.66602 55.5986 22 c 1
 38.2695 10.332 51.6 -47.2 28.4043 -53.998 c 1
 9.06836 -50.6641 7.6 -20.4 4.00293 -5.59961 c 1
 -6.39941 90.001 l 1
 -7.26139 97.8763 -9.3587 113.485 -9.3587 127.406 c 0
 -9.3587 141.259 -7.28195 153.44 0.155273 154.667 c 1
EndSplineSet
Validated: 1
EndChar

StartChar: _0028
Encoding: 4 70 4
Width: 164
VWidth: 2048
Flags: HW
HStem: -409 15 -94 15 221 15 536 15
LayerCount: 2
Fore
SplineSet
0 191 m 17
 5.59004 172.99 2.76983 161.341 4.5 146.25 c 1
 10.8533 131.483 21.0542 127.484 32.546 127.484 c 0
 36.7338 127.484 41.0931 128.016 45.5 128.75 c 1
 65.0611 133.274 80.75 159.75 112.25 160 c 1
 133.353 159.548 152 144 164 129.75 c 9
 164 -44.4199 l 17
 159.675 -31.7529 161.219 -18.3369 158.665 -5.66992 c 1
 152.665 7.08008 134.579 21.5244 111.665 23.3301 c 1
 79.2109 21.2725 74.165 -3.66992 45.915 -9.16992 c 1
 43.6121 -9.56246 41.2501 -9.74922 38.8707 -9.74922 c 0
 19.8437 -9.74922 -0.300029 2.19241 -0.300029 16.3455 c 0
 -0.300029 17.3307 -0.20241 18.3267 0 19.3301 c 9
 0 191 l 17
EndSplineSet
Validated: 1
EndChar

StartChar: _0027
Encoding: 5 71 5
Width: 164
VWidth: 2048
Flags: HW
HStem: -409 15 -94 15 221 15 536 15
LayerCount: 2
Fore
SplineSet
164 191 m 9
 164 22.1729 l 17
 164.202 21.1722 164.299 20.1788 164.299 19.1961 c 0
 164.299 5.03959 144.092 -6.90644 125.048 -6.90644 c 0
 122.667 -6.90644 120.304 -6.71969 118.001 -6.32715 c 1
 89.751 -0.827148 84.7041 24.1152 52.251 26.1729 c 1
 29.3369 24.3672 11.251 9.92285 5.25098 -2.82715 c 1
 2.69727 -15.4941 4.32519 -28.9102 0 -41.5771 c 9
 0 129.75 l 17
 12 144 30.6465 159.548 51.75 160 c 1
 83.25 159.75 98.9385 133.274 118.5 128.75 c 1
 122.907 128.016 127.265 127.485 131.453 127.485 c 0
 142.945 127.485 153.146 131.484 159.5 146.25 c 1
 161.23 161.341 158.41 172.99 164 191 c 9
EndSplineSet
Validated: 1
EndChar

StartChar: _0006
Encoding: 6 72 6
Width: 164
VWidth: 2048
Flags: HW
HStem: -409 15 -94 15 221 15 536 15
LayerCount: 2
Fore
SplineSet
0 371 m 17
 10.5 385.5 15 389.5 22.5 389.5 c 9
 22 52 l 21
 46.7373 15.5322 85.5 0 142.5 -6 c 5
 142 20 143.333 26.6667 129 54 c 5
 108.845 73.7666 87.9014 93.7178 31.5 94 c 13
 32 169 l 17
 35.6157 169.205 39.1853 169.304 42.7051 169.304 c 0
 113.414 169.304 164 129.353 164 109.667 c 9
 164 -63 l 17
 101 -55 33 -39 0 1 c 9
 0 371 l 17
EndSplineSet
Validated: 1
EndChar

StartChar: queue
Encoding: 7 153 7
Width: 22
VWidth: 2048
Flags: HW
HStem: -409 15 -94 15 221 15 536 15
LayerCount: 2
Fore
SplineSet
0 -165.5 m 9
 0 -5 l 29
 22 -5 l 25
 22 -157.5 l 17
 17.5928 -163.278 8.15723 -163.709 0 -165.5 c 9
EndSplineSet
Validated: 1
EndChar

StartChar: _0032
Encoding: 8 74 8
Width: 82
VWidth: 2048
Flags: HW
HStem: -409 15 -94 15 221 15 536 15
LayerCount: 2
Fore
SplineSet
33.8447 135.59 m 5
 40.8398 129.258 72.709 95.8252 81.5059 87.0586 c 5
 71.1133 68.1641 58.4316 43.8828 49.4004 23.7695 c 5
 36.3867 30.9961 6.96094 61.3809 0.123047 76.4248 c 5
 2.40625 88.5879 27.1846 127.812 33.8447 135.59 c 5
EndSplineSet
EndChar

StartChar: _0011
Encoding: 9 75 9
Width: 19
VWidth: 2048
Flags: HW
HStem: -409 15 -94 15 221 15 536 15
LayerCount: 2
Fore
SplineSet
0 550.999 m 29
 19 551 l 25
 19 -408.997 l 25
 0 -409.002 l 25
 0 550.999 l 29
EndSplineSet
Validated: 1
EndChar

StartChar: _0008
Encoding: 10 76 10
Width: 152
VWidth: 2048
Flags: HW
HStem: -409 15 -94 15 221 15 536 15
LayerCount: 2
Fore
SplineSet
152 553.333 m 1
 152 586.678 122.5 613.998 75 612.998 c 1
 49 612.998 17 597.998 17 572.998 c 1
 17 510.498 124.5 530.998 120 561.998 c 1
 152.5 495.998 46 458 0 418.998 c 5
 67 439 152 497.678 152 553.333 c 1
EndSplineSet
Validated: 41
EndChar

StartChar: _0001
Encoding: 11 77 11
Width: 140
VWidth: 2048
Flags: HW
HStem: -409 15 -94 15 221 15 536 15
LayerCount: 2
Fore
SplineSet
0 380.5 m 9
 0 74.5 l 17
 0 51.167 25 12.5 63.333 10.6699 c 0
 105.336 8.66463 140 19.667 140 27.9941 c 9
 140 27.9941 141.667 167.667 138.334 173 c 1
 98.334 163.657 63.374 168.845 55.667 170.665 c 0
 22.499 178.502 22 224.161 22 224.161 c 10
 22 236.667 l 18
 23 236.667 18.8457 279.427 55.333 289.834 c 0
 62.333 291.831 99.334 294.679 138.334 286.333 c 1
 141.667 296.667 140 378.667 140 424.5 c 1
 131.333 431.333 101.415 447.478 60 440 c 0
 24 433.5 0 400.667 0 380.5 c 9
EndSplineSet
Validated: 41
EndChar

StartChar: _0023
Encoding: 12 78 12
Width: 164
VWidth: 2048
Flags: HW
HStem: -409 15 -94 15 221 15 536 15
LayerCount: 2
Fore
SplineSet
141.996 -26.668 m 2
 142 -4 112.667 8.66667 82.001 9.33301 c 0
 47.001 9.33301 15 0.65625 0 -10 c 1
 0 150 l 1
 20 161 49.417 166 82 166 c 24
 114.583 166 144 158 164 150 c 9
 164 -220.668 l 1
 145.333 -220.667 141.996 -212.293 141.996 -212.293 c 25
 141.996 -26.668 l 2
EndSplineSet
Validated: 33
EndChar

StartChar: _0025
Encoding: 13 79 13
Width: 164
VWidth: 2048
Flags: HW
HStem: -409 15 -94 15 221 15 536 15
LayerCount: 2
Fore
SplineSet
22.0039 -26.668 m 6
 22.0039 -212.293 l 29
 22.0039 -212.293 18.667 -220.667 0 -220.668 c 5
 0 150 l 17
 20 158 49.417 166 82 166 c 24
 114.583 166 144 161 164 150 c 1
 164 -10 l 1
 149 0.65625 116.999 9.33301 81.999 9.33301 c 0
 51.333 8.66699 22 -4 22.0039 -26.668 c 6
EndSplineSet
Validated: 33
EndChar

StartChar: _0009
Encoding: 14 73 14
AltUni2: 000050.ffffffff.0
Width: 19
VWidth: 2048
Flags: HW
HStem: -409 15 -94 15 221 15 536 15
LayerCount: 2
Fore
SplineSet
0 359.128 m 9
 0 719.984 l 29
 18.999 720.021 l 25
 19 352.431 l 17
 6.04348 352.565 2.43478 355.609 0 359.128 c 9
EndSplineSet
Validated: 1
EndChar

StartChar: _0010
Encoding: 15 81 15
Width: 19
VWidth: 2048
Flags: HW
HStem: -409 15 -94 15 221 15 536 15
LayerCount: 2
Fore
SplineSet
0 -296.375 m 9
 0 383.125 l 21
 3.87305 385.802 10.75 386.375 19 386.5 c 9
 19 -293.375 l 17
 14.875 -293.5 5 -293.375 0 -296.375 c 9
EndSplineSet
Validated: 1
EndChar

StartChar: _0024
Encoding: 16 83 16
Width: 164
VWidth: 2048
Flags: HW
HStem: -409 15 -94 15 221 15 536 15
LayerCount: 2
Fore
SplineSet
22.0039 -26.668 m 2
 22.0049 -356.286 l 29
 22.0049 -356.286 18.667 -364.999 0 -365 c 5
 0 150 l 17
 20 158 49.417 166 82 166 c 24
 114.583 166 144 161 164 150 c 1
 164 -10 l 1
 149 0.65625 116.999 9.33301 81.999 9.33301 c 0
 51.333 8.66699 22 -4 22.0039 -26.668 c 2
EndSplineSet
Validated: 33
EndChar

StartChar: pesdeminutus
Encoding: 17 84 17
Width: 164
VWidth: 2048
Flags: HW
HStem: -409 15 -94 15 221 15 536 15
LayerCount: 2
Fore
SplineSet
0 -10.1777 m 5
 0 149.998 l 1
 8 136 23 123.157 31.1973 117.771 c 0
 50.8242 104.875 80.6316 105.482 99 109.5 c 0
 115 113 135 134.5 142 144.375 c 1
 142 176.727 142.004 156.001 142 176.672 c 1
 164 176.672 141.999 176.673 163.999 176.673 c 1
 163.999 -5.19922 l 1
 144 -19.5 116.33 -32.8232 102.5 -36.5 c 0
 86.0557 -40.8721 43.333 -40.8418 28.667 -34.1758 c 0
 22.418 -31.3359 3.33301 -19.5098 0 -10.1777 c 5
EndSplineSet
Validated: 33
EndChar

StartChar: auctusd1
Encoding: 18 85 18
Width: 164
VWidth: 2048
Flags: HW
HStem: -409 15 -94 15 221 15 536 15
LayerCount: 2
Fore
SplineSet
0 160.67 m 5
 22.001 160.664 l 4
 22 152.75 22 160.688 21.999 152.666 c 5
 33.0977 155.382 58.8479 159.316 79.25 158 c 5
 100.746 156.818 123.293 142.362 140 124.791 c 4
 151.56 112.633 160.316 71.7822 164 60.0078 c 13
 164 -96 l 5
 159.353 -83.1748 147.147 -39.1311 132 -24.5741 c 4
 114.552 -7.80614 94.2002 1.92969 76 3 c 4
 41.0605 5.05566 15 0.648438 0 -10.0078 c 5
 0 160.67 l 5
EndSplineSet
Validated: 33
EndChar

StartChar: auctusa1
Encoding: 19 86 19
Width: 164
VWidth: 2048
Flags: W
HStem: -409 15 -94 15 221 15 536 15
LayerCount: 2
Fore
SplineSet
0 -10 m 5
 0 161.5 l 5
 0 161.5 0 161.5 22 161.5 c 5
 22 146.062 22 159.5 22 144 c 5
 33.5 139.5 46 137 64 138 c 4
 82.7738 139.043 117.585 160.223 133 177 c 4
 143.667 188.61 159 232 164 251 c 13
 164 79 l 5
 160.674 59.6748 149.336 34.3379 141 24 c 4
 127.283 6.99023 84.9521 -10.4482 64 -12 c 4
 50.0889 -13.0303 12 -14 0 -10 c 5
EndSplineSet
Validated: 33
EndChar

StartChar: mdeminutus
Encoding: 20 87 20
Width: 186
VWidth: 2048
Flags: HW
HStem: -409 15 -94 15 221 15 536 15
LayerCount: 2
Fore
SplineSet
186 100.001 m 13
 186 -61.999 l 29
 164 -61.999 l 4
 149 -31 106 -12 46 -5 c 4
 37.3942 -3.99599 29 -8.5 21.9971 -21.5 c 4
 21.9971 -21.5 8.5791 -21.5 0 -21.5 c 29
 0 144.666 l 5
 11 149.666 16.1506 155.337 37.999 154.664 c 4
 92 153 156.02 134.329 186 100.001 c 13
EndSplineSet
EndChar

StartChar: _0007
Encoding: 21 88 21
Width: 201
VWidth: 2048
Flags: HW
HStem: -409 15 -94 15 221 15 536 15
LayerCount: 2
Fore
SplineSet
0 382 m 9
 0 -53 l 17
 51 -47 116 -45 170 0 c 1
 170 13 169 19 169 59 c 5
 111 12 70 12 22 5 c 13
 22 79 l 21
 68 113 106.103 115.761 179 126 c 13
 179 -244 l 17
 186.675 -242.17 195.761 -243.79 201 -236 c 9
 201 185 l 17
 117 177 81 177 22 140 c 9
 22 393 l 17
 14.6667 390.185 7.33334 390.885 0 382 c 9
EndSplineSet
Validated: 9
EndChar

StartChar: _0002
Encoding: 22 89 22
Width: 321
VWidth: 2048
Flags: HW
HStem: -409 15 -94 15 221 15 536 15
LayerCount: 2
Fore
SplineSet
129.995 131.999 m 1
 129.999 154.667 114.666 168.334 84 169 c 1
 49 169 15 165.5 0 155 c 1
 0 312 l 1
 21 324 56.4727 327.644 93 325 c 24
 117.775 323.207 135.499 320.499 151.999 300.999 c 9
 151.999 140.999 l 0
 151.999 133.666 152 -54.666 152 -58 c 1
 133.333 -57.999 129.995 -53.626 129.995 -53.626 c 25
 129.995 131.999 l 1
181 389.006 m 9
 181 52.5059 l 17
 181 29.1729 209 6.21973 244.333 5.17578 c 0
 269.289 4.4375 321 14.1729 321 22.5 c 9
 321 22.5 322.667 162.173 319.334 167.506 c 1
 279.334 158.163 244.374 163.351 236.667 165.171 c 0
 203.499 173.008 203 218.667 203 218.667 c 10
 203 231.173 l 18
 204 231.173 199.846 273.933 236.333 284.34 c 0
 243.333 286.337 280.334 289.185 319.334 280.839 c 1
 322.667 291.173 321 373.173 321 419.006 c 1
 312.333 425.839 283 437.173 241 434.506 c 0
 215.718 432.9 181 409.173 181 389.006 c 9
EndSplineSet
Validated: 41
EndChar

StartChar: _0063
Encoding: 23 90 23
Width: 85
VWidth: 2048
Flags: HW
HStem: -409 15 -94 15 221 15 536 15
LayerCount: 2
Fore
SplineSet
63 -345.5 m 5
 63 -7 l 5
 59 3.5 25 -27.5 3 -37.5 c 5
 0 -27.5 0.279297 112.5 0 122.5 c 5
 -0.329102 141.075 78 185.5 85 169 c 5
 85 -333.5 l 6
 85 -338.5 63 -345.5 63 -345.5 c 5
EndSplineSet
Validated: 33
EndChar

StartChar: _0064
Encoding: 24 91 24
Width: 85
VWidth: 2048
Flags: HW
HStem: -409 15 -94 15 221 15 536 15
LayerCount: 2
Fore
SplineSet
63 -240.5 m 5
 63 -17 l 5
 59 -6.5 25 -37.5 3 -47.5 c 5
 0 -37.5 0.279297 102.5 0 112.5 c 5
 -0.329102 131.075 78 175.5 85 159 c 5
 85 -228.5 l 6
 84.9746 -237.485 63 -240.5 63 -240.5 c 5
EndSplineSet
Validated: 33
EndChar

StartChar: _0060
Encoding: 25 92 25
Width: 85
VWidth: 2048
Flags: HW
HStem: 854.5 15 539.5 15 224.5 15 -90.5 15
LayerCount: 2
Fore
SplineSet
63 478.5 m 5
 63 140 l 5
 59 129.5 25 160.5 3 170.5 c 5
 0 160.5 0.279297 20.5 0 10.5 c 5
 -0.329102 -8.0752 78 -52.5 85 -36 c 5
 85 466.5 l 6
 85 471.5 63 478.5 63 478.5 c 5
EndSplineSet
Validated: 41
EndChar

StartChar: _0061
Encoding: 26 93 26
Width: 85
VWidth: 2048
Flags: HW
HStem: 957.5 15 642.5 15 327.5 15 12.5 15
LayerCount: 2
Fore
SplineSet
63 370.5 m 5
 63 147 l 5
 59 136.5 25 167.5 3 177.5 c 5
 0 167.5 0.279297 27.5 0 17.5 c 5
 -0.329102 -1.0752 78 -45.5 85 -29 c 5
 85 358.5 l 6
 84.9746 367.485 63 370.5 63 370.5 c 5
EndSplineSet
Validated: 41
EndChar

StartChar: base2
Encoding: 27 94 27
Width: 164
VWidth: 2048
Flags: HW
HStem: -409 15 -94 15 221 15 536 15
LayerCount: 2
Fore
SplineSet
164 -21.5 m 29
 142 -21.5 l 4
 137.5 -9.5 112 5.5 76 5.5 c 4
 46.5 5.5 15 0.65625 0 -10 c 5
 0 146 l 5
 20 157 49.417 162 82 162 c 28
 114.583 162 144 154 164 146 c 13
 164 -21.5 l 29
EndSplineSet
Validated: 1
EndChar

StartChar: base4
Encoding: 28 95 28
Width: 164
VWidth: 2048
Flags: HW
HStem: -409 15 -94 15 221 15 536 15
LayerCount: 2
Fore
SplineSet
0 -21.5 m 25
 0 146 l 21
 20 154 49.417 162 82 162 c 24
 114.583 162 144 157 164 146 c 1
 164 -10 l 1
 149 0.65625 117.5 5.5 88 5.5 c 0
 52 5.5 26.5 -9.5 22 -21.5 c 0
 22 -21.5 8.58008 -21.5 0 -21.5 c 25
EndSplineSet
Validated: 1
EndChar

StartChar: base7
Encoding: 29 96 29
Width: 164
VWidth: 2048
Flags: HW
HStem: -409 15 -94 15 221 15 536 15
LayerCount: 2
Fore
SplineSet
0 151.674 m 1
 22.0078 151.668 l 0
 29.6738 155.008 51.3398 162.008 82 162 c 0
 114.583 161.992 144 154 164 146 c 9
 164 -10.0078 l 5
 149 0.950195 117.993 8.99219 81.9932 8.99219 c 0
 46.9932 8.99219 15 0.648438 0 -10.0078 c 1
 0 151.674 l 1
EndSplineSet
Validated: 33
EndChar

StartChar: base5
Encoding: 30 97 30
Width: 164
VWidth: 2048
Flags: HW
HStem: -409 15 -94 15 221 15 536 15
LayerCount: 2
Fore
SplineSet
164 151.674 m 1
 164 -10.0078 l 1
 149 0.648438 117 8.99219 82 8.99219 c 0
 46 8.99219 15 0.950195 0 -10.0078 c 1
 0 146 l 17
 20 154 49.417 161.992 82 162 c 4
 112.66 162.008 134.326 155.008 141.992 151.668 c 0
 164 151.674 l 1
EndSplineSet
Validated: 33
EndChar

StartChar: base3
Encoding: 31 98 31
Width: 164
VWidth: 2048
Flags: HW
HStem: -409 15 -94 15 221 15 536 15
LayerCount: 2
Fore
SplineSet
164 146 m 13
 164 -21.5 l 25
 142 -21.5 l 0
 136.333 -11 118.002 5.66667 82.002 5.66602 c 0
 46.002 5.66536 26.4971 -9.5 21.9971 -21.5 c 0
 0 -21.5 l 25
 0 146 l 1
 20 157 49.417 162 82 162 c 28
 114.583 162 144 154 164 146 c 13
EndSplineSet
Validated: 33
EndChar

StartChar: base6
Encoding: 32 99 32
Width: 164
VWidth: 2048
Flags: HW
HStem: -409 15 -94 15 221 15 536 15
LayerCount: 2
Fore
SplineSet
141.992 151.668 m 0
 164 151.674 l 1
 164 -10.0078 l 1
 149 0.648438 117 8.99219 82 8.99219 c 0
 46 8.99219 15 0.950195 0 -10.0078 c 1
 0 151.7 l 5
 22.001 151.7 l 0
 29.667 155.04 51.333 162.084 81.9932 162.076 c 0
 114.576 162.068 134.326 155.008 141.992 151.668 c 0
EndSplineSet
Validated: 33
EndChar

StartChar: line2
Encoding: 33 100 33
Width: 22
VWidth: 2048
Flags: HW
HStem: -409 15 -94 15 221 15 536 15
LayerCount: 2
Fore
SplineSet
0 -11.5 m 25
 0 146 l 25
 22 146 l 25
 22 -11.5 l 29
 0 -11.5 l 25
EndSplineSet
Validated: 1
EndChar

StartChar: line3
Encoding: 34 101 34
Width: 22
VWidth: 2048
Flags: HW
HStem: -420.5 15 -105.5 15 209.5 15 524.5 15
LayerCount: 2
Fore
SplineSet
0 -11.5 m 25
 0 303.5 l 25
 22 303.5 l 29
 22 -11.5 l 25
 0 -11.5 l 25
EndSplineSet
Validated: 1
EndChar

StartChar: line4
Encoding: 35 102 35
Width: 22
VWidth: 2048
Flags: HW
HStem: -420.5 15 -105.5 15 209.5 15 524.5 15
LayerCount: 2
Fore
SplineSet
0 -11.5 m 25
 0 453.5 l 25
 22 453.5 l 29
 22 -11.5 l 25
 0 -11.5 l 25
EndSplineSet
Validated: 1
EndChar

StartChar: line5
Encoding: 36 103 36
Width: 22
VWidth: 2048
Flags: HW
HStem: -420.5 15 -105.5 15 209.5 15 524.5 15
LayerCount: 2
Fore
SplineSet
0 -11.5 m 25
 0 619.5 l 25
 22 619.5 l 29
 22 -11.5 l 25
 0 -11.5 l 25
EndSplineSet
Validated: 1
EndChar

StartChar: vsbase
Encoding: 37 104 37
Width: 164
VWidth: 2048
Flags: HW
HStem: -409 15 -94 15 221 15 536 15
LayerCount: 2
Fore
SplineSet
22.0039 -26.668 m 2
 22.0039 -212.293 l 25
 22.0039 -212.293 18.667 -220.667 0 -220.668 c 1
 0 150 l 17
 20 158 49.417 166 82 166 c 24
 114.583 166 144 161 164 150 c 1
 164 -20 l 1
 153.375 -19.875 164 -20 142 -20 c 1
 140.625 -12.125 132.583 -1.72852 127 0 c 1
 114 8 103.563 9.49736 81.999 9.33301 c 0
 51.331 8.66695 22.0039 1.90735e-06 22.0039 -26.668 c 2
EndSplineSet
Validated: 33
EndChar

StartChar: rvsbase
Encoding: 38 -1 38
Width: 164
VWidth: 2048
Flags: HW
HStem: -409 15 -94 15 221 15 536 15
LayerCount: 2
Fore
SplineSet
141.996 -26.668 m 2
 142 -4 112.667 8.66699 82.001 9.33301 c 0
 60.4375 9.49707 50 8 37 0 c 1
 31.417 -1.72852 23.375 -12.125 22 -20 c 1
 0 -20 10.625 -19.875 0 -20 c 1
 0 150 l 1
 20 161 49.417 166 82 166 c 24
 114.583 166 144 158 164 150 c 9
 164 -220.668 l 5
 145.333 -220.667 141.996 -212.293 141.996 -212.293 c 25
 141.996 -26.668 l 2
EndSplineSet
Validated: 33
EndChar

StartChar: vlbase
Encoding: 39 -1 39
Width: 164
VWidth: 2048
Flags: HW
HStem: -409 15 -94 15 221 15 536 15
LayerCount: 2
Fore
SplineSet
22.0039 -26.668 m 2
 21.998 -356.617 l 25
 21.998 -356.617 18.667 -364.991 0 -364.992 c 5
 0 150 l 17
 20 158 49.417 166 82 166 c 24
 114.583 166 144 161 164 150 c 1
 164 -20 l 1
 153.375 -19.875 164 -20 142 -20 c 1
 140.625 -12.125 132.583 -1.72852 127 0 c 1
 114 8 103.563 9.49736 81.999 9.33301 c 0
 51.331 8.66695 22.0043 -4.49997 22.0039 -26.668 c 2
EndSplineSet
Validated: 33
EndChar

StartChar: qbase
Encoding: 40 -1 40
Width: 164
VWidth: 2048
Flags: HW
HStem: -409 15 -94 15 221 15 536 15
LayerCount: 2
Fore
SplineSet
0.155273 154.667 m 1
 16.7998 155.6 18.5117 112.303 30.001 102.803 c 1
 44.5117 112.303 34.6667 183.333 57.165 183.335 c 1
 78 183.333 75.3333 120 87.1562 114.5 c 1
 101.333 122.667 98 204 117.161 203.669 c 1
 136.667 204 126.988 151.666 144 146.666 c 1
 144 160.4 144 159.2 143.997 172.006 c 1
 155.2 172 148.4 172 164 171.6 c 1
 164.004 35.333 l 5
 164 17.6667 165.667 -1 144.336 -5.66699 c 1
 120.332 -1.00781 134.667 34 117.003 40.999 c 1
 100.995 32.9961 114 -30 86.0068 -34.001 c 1
 58.6667 -30 72.2695 8.66602 55.5986 22 c 1
 38.2695 10.332 51.6 -47.2 28.4043 -53.998 c 1
 9.06836 -50.6641 7.6 -20.4 4.00293 -5.59961 c 1
 -6.39941 90.001 l 1
 -8.11914 105.713 -14.7559 152.207 0.155273 154.667 c 1
EndSplineSet
EndChar

StartChar: obase
Encoding: 41 -1 41
Width: 164
VWidth: 2048
Flags: HW
HStem: -409 15 -94 15 221 15 536 15
LayerCount: 2
Fore
SplineSet
164 157.331 m 9
 164 22.1729 l 17
 164 4.5 140.001 -10.0771 118.001 -6.32715 c 1
 89.751 -0.827148 84.7041 24.1152 52.251 26.1729 c 1
 29.3369 24.3672 11.251 9.92383 5.25098 -2.82617 c 1
 2.69727 -15.4932 4.3252 -13.9941 0 -26.6611 c 9
 0 129.75 l 17
 12 144 30.6465 159.548 51.75 160 c 5
 83.25 159.75 98.9385 133.274 118.5 128.75 c 1
 135 126 139.333 134.667 141.992 141.999 c 1
 142 149.455 142 149.333 141.998 157.333 c 5
 151.333 157.5 147.333 157.333 164 157.331 c 9
EndSplineSet
Validated: 33
EndChar

StartChar: pbase
Encoding: 42 -1 42
Width: 164
VWidth: 2048
Flags: HW
HStem: -409 15 -94 15 221 15 536 15
LayerCount: 2
Fore
SplineSet
164 148.674 m 1
 164 -10.0078 l 1
 144.507 -17.5 131.5 -22.5 96.5 -22.5 c 0
 60.5 -22.5 16.0068 -16.5 0 -10.0078 c 1
 0 143 l 17
 15 138.5 51 129 95 133.5 c 0
 120.543 136.112 134 142.5 141.992 148.668 c 4
 164 148.674 l 1
EndSplineSet
Validated: 33
EndChar

StartChar: idebilis
Encoding: 43 -1 43
Width: 110
VWidth: 2048
Flags: HW
HStem: -409 15 -94 15 221 15 536 15
LayerCount: 2
Fore
SplineSet
110 147 m 1
 110 16 l 1
 100 24.3333 82.6665 27.9905 55.667 28.335 c 0
 29.6667 28.6667 7 24 0 16 c 1
 0 119 l 17
 10 124 30.6667 127 54.0039 127 c 4
 69.3333 127 85.667 125.337 88 124 c 0
 88.002 146.994 l 1
 110 147 l 1
EndSplineSet
Validated: 33
EndChar

StartChar: deminutus
Encoding: 44 -1 44
Width: 110
VWidth: 2048
Flags: HW
HStem: -409 15 -94 15 221 15 536 15
LayerCount: 2
Fore
SplineSet
110 147 m 1
 110 16 l 1
 104.5 11.5 89 6 69 5 c 0
 43.0303 3.70117 14.5 7 0 16 c 1
 0 119 l 17
 23 111 47.5 109 63 109.5 c 0
 72.4951 109.807 86.5 119 88 124 c 4
 88.002 146.994 l 1
 110 147 l 1
EndSplineSet
Validated: 33
EndChar

StartChar: rdeminutus
Encoding: 45 -1 45
Width: 110
VWidth: 2048
Flags: HW
HStem: 545.728 15 230.728 15 -84.2722 15 -399.272 15
LayerCount: 2
Fore
SplineSet
110 -21 m 1
 88.002 -20.9941 l 1
 88 27.7275 l 0
 86.5 32.7275 72.4951 41.9209 63 42.2275 c 0
 47.5 42.7275 23 40.7275 0 32.7275 c 9
 0 135.728 l 1
 14.5 144.728 43.0303 148.026 69 146.728 c 4
 89 145.728 104.5 140.228 110 135.728 c 1
 110 -21 l 1
EndSplineSet
Validated: 33
EndChar

StartChar: auctusd2
Encoding: 46 -1 46
Width: 164
VWidth: 2048
Flags: HW
HStem: -409 15 -94 15 221 15 536 15
LayerCount: 2
Fore
SplineSet
0 146.001 m 1
 17.2 154.4 55.9994 159.987 79.25 158 c 5
 100.746 156.818 123.293 142.362 140 124.791 c 0
 151.56 112.633 160.316 71.7822 164 60.0078 c 9
 164 -96 l 1
 159.353 -83.1748 147.147 -39.1311 132 -24.5741 c 0
 114.552 -7.80614 94.2002 1.92969 76 3 c 0
 53.6419 4.31543 36.5176 2.72168 22 -1.2002 c 1
 22 -18.0909 22 -1.27273 22 -18.0049 c 1
 -0.00779915 -18 22 -18 0 -18.0059 c 1
 0 146.001 l 1
EndSplineSet
Validated: 33
EndChar

StartChar: auctusa2
Encoding: 47 -1 47
Width: 164
VWidth: 2048
Flags: HW
HStem: -409 15 -94 15 221 15 536 15
LayerCount: 2
Fore
SplineSet
0 151.674 m 1
 0 151.674 33.3398 138.008 64 138 c 4
 82.8027 137.995 117.585 160.223 133 177 c 0
 143.667 188.61 159 232 164 251 c 9
 164 79 l 1
 160.674 59.6748 149.336 34.3379 141 24 c 0
 127.283 6.99023 84.9521 -10.4482 64 -12 c 0
 50.0889 -13.0303 33.999 -10.8184 21.999 -6.81836 c 1
 22.0215 -19.1533 22 -11.1667 22 -23 c 1
 3.33333 -23 21.8333 -23 0 -22.9932 c 1
 0 151.674 l 1
EndSplineSet
Validated: 33
EndChar

StartChar: porrectus1
Encoding: 48 -1 48
Width: 490
VWidth: 2048
Flags: HW
HStem: -409 15 -94 15 221 15 536 15
LayerCount: 2
Fore
SplineSet
0 -16 m 1
 0 155 l 2
 0 159.739 3.67916 157.34 7 154.75 c 4
 143.49 48.2977 249.871 -40.1758 468 -51.875 c 1
 468 -8.875 468 -51.875 468 -9 c 1
 478.125 -9 485.281 -8.90039 490 -9 c 1
 490 -189 l 2
 490 -191.229 489.69 -190.612 487.76 -190.591 c 0
 254 -188 136.5 -110 0 -16 c 1
EndSplineSet
Validated: 33
EndChar

StartChar: porrectus2
Encoding: 49 -1 49
Width: 575
VWidth: 2048
Flags: HW
HStem: -409 15 -94 15 221 15 536 15
LayerCount: 2
Fore
SplineSet
0 -16 m 1
 0 155 l 2
 0 159.739 4.39911 158.063 7 154.75 c 4
 181.5 -67.5 330 -189 553 -219.875 c 1
 553 -176.875 553 -174.875 553 -132 c 1
 563.125 -132 570.281 -131.9 575 -132 c 1
 575 -357 l 2
 575 -359.229 574.68 -358.787 572.76 -358.591 c 0
 322.5 -333 154.5 -201 0 -16 c 1
EndSplineSet
Validated: 33
EndChar

StartChar: porrectus3
Encoding: 50 -1 50
Width: 650
VWidth: 2048
Flags: HW
HStem: -409 15 -94 15 221 15 536 15
LayerCount: 2
Fore
SplineSet
0 -16 m 1
 0 155 l 2
 0 159.739 5.08372 158.501 7 154.75 c 4
 130 -86 270 -314 628 -362 c 1
 628 -319 628 -292.875 628 -250 c 1
 638.125 -250 645.281 -249.9 650 -250 c 1
 650 -479 l 2
 650 -481.229 649.661 -480.926 647.76 -480.591 c 0
 202 -402 116 -240 0 -16 c 1
EndSplineSet
Validated: 33
EndChar

StartChar: porrectus4
Encoding: 51 -1 51
Width: 740
VWidth: 2048
Flags: HW
HStem: -409 15 -94 15 221 15 536 15
LayerCount: 2
Fore
SplineSet
0 -25 m 1
 0 172.5 l 2
 0 177.239 5.27441 176.092 7 172.25 c 4
 134 -110.5 367.502 -459.831 718.002 -536.331 c 1
 718.002 -493.331 718 -492.875 718 -450 c 1
 728.125 -450 735.281 -449.9 740 -450 c 1
 740 -679 l 2
 740 -681.229 739.615 -681.119 737.76 -680.591 c 0
 270 -547.5 75 -217.5 0 -25 c 1
EndSplineSet
Validated: 33
EndChar

StartChar: porrectus5
Encoding: 52 -1 52
Width: 931
VWidth: 2048
Flags: HW
HStem: -409 15 -94 15 221 15 536 15
LayerCount: 2
Fore
SplineSet
0 -16 m 1
 0 155 l 2
 0 159.739 5.3553 158.627 7 154.75 c 0
 122.5 -117.5 382.5 -591 909 -711 c 1
 909 -668 909 -654.875 909 -612 c 5
 919.125 -612 926.281 -611.9 931 -612 c 1
 931 -841 l 2
 931 -843.229 930.646 -842.992 928.76 -842.591 c 0
 315 -712 70 -240 0 -16 c 1
EndSplineSet
Validated: 33
EndChar

StartChar: porrectusflexus1
Encoding: 53 -1 53
Width: 340
VWidth: 2048
Flags: HW
HStem: -409 15 -94 15 221 15 536 15
LayerCount: 2
Fore
SplineSet
0 -16 m 5
 0 155 l 6
 0 159.739 3.67916 157.34 7 154.75 c 4
 143.49 48.2977 204 -6.125 318 -10 c 5
 318 33 318 -33.875 318 9 c 5
 328.125 9 335.281 9.09961 340 9 c 5
 340 -147.125 l 6
 340 -149.354 339.69 -148.775 337.76 -148.716 c 4
 187.5 -144.125 136.5 -110 0 -16 c 5
EndSplineSet
Validated: 33
EndChar

StartChar: porrectusflexus2
Encoding: 54 -1 54
Width: 428
VWidth: 2048
Flags: HW
HStem: -409 15 -94 15 221 15 536 15
LayerCount: 2
Fore
SplineSet
0 -16 m 5
 0 155 l 6
 0 159.739 4.76959 158.322 7 154.75 c 4
 98 9 278 -160.625 406 -166 c 5
 406 -123 406 -188.375 406 -145.5 c 5
 416.125 -145.5 423.281 -145.4 428 -145.5 c 5
 428 -295.5 l 6
 428 -297.729 427.688 -297.188 425.76 -297.091 c 4
 265 -289 107 -166 0 -16 c 5
EndSplineSet
Validated: 33
EndChar

StartChar: porrectusflexus3
Encoding: 55 -1 55
Width: 586
VWidth: 2048
Flags: HW
HStem: -409 15 -94 15 221 15 536 15
LayerCount: 2
Fore
SplineSet
0 -16 m 5
 0 155 l 6
 0 159.739 5.05344 158.485 7 154.75 c 4
 96 -16 328 -284 564 -328.5 c 5
 564 -285.5 564 -350.875 564 -308 c 5
 574.125 -308 581.281 -307.9 586 -308 c 5
 586 -458 l 6
 586 -460.229 585.679 -459.792 583.76 -459.591 c 4
 282 -428 86 -170 0 -16 c 5
EndSplineSet
Validated: 33
EndChar

StartChar: porrectusflexus4
Encoding: 56 -1 56
Width: 670
VWidth: 2048
Flags: HW
HStem: -409 15 -94 15 221 15 536 15
LayerCount: 2
Fore
SplineSet
0 -16 m 5
 0 155 l 6
 0 159.739 5.13671 158.527 7 154.75 c 4
 109 -52 374 -402 648 -447.5 c 5
 648 -404.5 648 -469.875 648 -427 c 5
 658.125 -427 665.281 -426.9 670 -427 c 5
 670 -577 l 6
 670 -579.229 669.666 -578.888 667.76 -578.591 c 4
 305 -522 98 -214 0 -16 c 5
EndSplineSet
Validated: 33
EndChar

StartChar: porrectusflexus5
Encoding: 57 -1 57
Width: 931
VWidth: 2048
Flags: HW
HStem: -409 15 -94 15 221 15 536 15
LayerCount: 2
Fore
SplineSet
0 -16 m 5
 0 155 l 6
 0 159.739 5.3553 158.627 7 154.75 c 4
 122.5 -117.5 382.5 -525 909 -645 c 5
 909 -602 909 -634.875 909 -592 c 5
 919.125 -592 926.281 -591.9 931 -592 c 5
 931 -775 l 6
 931 -777.229 930.646 -776.992 928.76 -776.591 c 4
 315 -646 70 -240 0 -16 c 5
EndSplineSet
Validated: 33
EndChar

StartChar: _2561
Encoding: 58 -1 58
Width: 164
VWidth: 2048
Flags: HW
HStem: -409 15 -94 15 221 15 536 15
LayerCount: 2
Fore
SplineSet
140.496 158.67 m 0
 135.996 170.67 112.667 181.997 76.667 181.997 c 0
 47.167 181.997 15 177.153 0 166.497 c 1
 0 300.497 l 1
 20 311.497 50.084 316.497 82.667 316.497 c 0
 115.25 316.497 144 308 164 300 c 1
 164 29.833 l 6
 164 12.167 165.667 -6.5 144.336 -11.167 c 1
 120.332 -6.50781 130.664 28.501 113 35.5 c 1
 96.9922 27.4971 110.993 -35.499 83 -39.5 c 1
 55.6602 -35.499 69.6709 5.66602 53 19 c 1
 35.6709 7.33203 52.667 -52.833 22.0029 -61.501 c 1
 2.66699 -58.167 1.99512 -28.167 0 -13.4883 c 2
 -10 89.333 l 1
 -10.6367 104.965 -16.1904 123.223 -1.1748 130.5 c 1
 14 127.333 10.667 74.5 22.1562 65 c 1
 36.667 74.5 27.502 151.498 50 151.5 c 0
 70.835 151.498 66.6768 94.5 78.5 89 c 1
 92.6768 97.167 87.0059 159.328 106.167 158.997 c 0
 125.673 159.328 114.489 118 131.5 113 c 1
 134.849 113.609 145.541 139.116 140.496 158.67 c 0
EndSplineSet
Validated: 33
EndChar

StartChar: _0021
Encoding: 59 -1 59
Width: 164
VWidth: 2048
Flags: HW
HStem: -409 15 -94 15 221 15 536 15
LayerCount: 2
Fore
SplineSet
58.5 163.504 m 1
 110.666 123.337 151 86.3333 163.999 69.0176 c 1
 158.667 42.6667 117.333 0 90.0186 -22.6611 c 0
 78.4298 -32.2755 38.0059 -60.667 8.66699 -62.0029 c 1
 -6.66113 -58.667 0.00585938 -55.334 9.33105 -49.335 c 1
 52.0059 -36.001 71.3311 -2.99414 70.6709 3.33008 c 1
 62.3311 15.3389 26.666 40.6729 0 56.6709 c 5
 5.66699 68.5049 51.333 146.337 58.5 163.504 c 1
EndSplineSet
Validated: 33
EndChar

StartChar: _0031
Encoding: 60 -1 60
Width: 164
VWidth: 2048
Flags: HW
HStem: -409 15 -94 15 221 15 536 15
LayerCount: 2
Fore
SplineSet
67.0293 191.15 m 5
 81.0195 178.488 144.757 111.622 162.352 94.0889 c 5
 144.492 54.9834 131.967 19.3535 99.5967 -19.209 c 5
 86.7588 -37.6045 39.5713 -53.7754 20.7568 -54.4834 c 5
 18.8275 -54.6048 16.867 -54.7378 15.2637 -54.7378 c 0
 13.1625 -54.7378 11.6748 -54.5094 11.6748 -53.7276 c 0
 11.6748 -53.0522 12.7849 -51.9639 15.5684 -50.2529 c 5
 35.2119 -37.1504 61.1982 -26.6338 66.4355 -7.6582 c 5
 39.6904 17.0068 8.97949 52.1523 -0.414062 72.8213 c 5
 4.15039 97.1445 53.707 175.597 67.0293 191.15 c 5
EndSplineSet
EndChar

StartChar: _0022
Encoding: 61 -1 61
Width: 164
VWidth: 2048
Flags: HW
HStem: -409 15 -94 15 221 15 536 15
LayerCount: 2
Fore
SplineSet
141.996 -26.668 m 2
 142 -4 112.667 8.66667 82.001 9.33301 c 0
 47.001 9.33301 15 0.65625 0 -10 c 1
 0 150 l 5
 20 161 49.417 166 82 166 c 24
 114.583 166 144 158 164 150 c 13
 164 -365.337 l 1
 145.333 -365.336 142.005 -356.962 142.005 -356.962 c 25
 141.996 -26.668 l 2
EndSplineSet
Validated: 33
EndChar

StartChar: _0014
Encoding: 62 -1 62
Width: 71
VWidth: 2679
Flags: HW
HStem: -219.133 9 -30.1332 9 158.867 9 347.867 9
LayerCount: 2
Fore
SplineSet
35.5 47.75 m 4
 17.4814 47.75 -0.25 62.8789 -0.25 83.5 c 4
 -0.25 104.155 17.4727 119.25 35.5 119.25 c 4
 53.5186 119.25 71.25 104.121 71.25 83.5 c 4
 71.25 62.8447 53.5273 47.75 35.5 47.75 c 4
EndSplineSet
EndChar

StartChar: _0015
Encoding: 63 -1 63
Width: 71
VWidth: 2679
Flags: HW
HStem: -409 15 -94 15 221 15 536 15
LayerCount: 2
Fore
SplineSet
35.75 16.25 m 4
 17.7314 16.25 0 31.3789 0 52 c 4
 0 72.6553 17.7227 87.75 35.75 87.75 c 4
 53.7686 87.75 71.5 72.6211 71.5 52 c 4
 71.5 31.3447 53.7773 16.25 35.75 16.25 c 4
35.75 346.25 m 4
 17.7314 346.25 0 361.379 0 382 c 4
 0 402.655 17.7227 417.75 35.75 417.75 c 4
 53.7686 417.75 71.5 402.621 71.5 382 c 4
 71.5 361.345 53.7773 346.25 35.75 346.25 c 4
EndSplineSet
EndChar

StartChar: _0033
Encoding: 64 -1 64
Width: 40
VWidth: 2048
Flags: HW
HStem: -409 15 -94 15 221 15 536 15
LayerCount: 2
Fore
SplineSet
0 96.75 m 17
 2.5 100.625 6.62012 104 20 104 c 4
 32.625 104 37.5 100.125 40 96.75 c 13
 40 -20.625 l 17
 36.875 -25.25 31.874 -27.874 20 -28 c 0
 8.25 -28.125 3.875 -25.625 0 -20.625 c 9
 0 96.75 l 17
EndSplineSet
EndChar

StartChar: _0013
Encoding: 65 -1 65
Width: 110
VWidth: 2048
Flags: HW
HStem: -409 15 -94 15 221 15 536 15
LayerCount: 2
Fore
SplineSet
110 119 m 1
 110 16 l 1
 100 24.3333 82.6665 27.9905 55.667 28.335 c 0
 29.6667 28.6667 7 24 0 16 c 1
 0 119 l 17
 10 124 32.5 127 54.0039 127 c 4
 73.184 127 98.5 125.75 110 119 c 1
EndSplineSet
Validated: 33
EndChar

StartChar: hepisemus_base
Encoding: 66 -1 66
Width: 1
VWidth: 2048
Flags: HW
HStem: -409 15 -94 15 221 15 536 15
LayerCount: 2
Fore
SplineSet
0 64 m 29
 0 96 l 25
 1 96 l 25
 1 64 l 25
 0 64 l 29
EndSplineSet
EndChar

StartChar: _1025
Encoding: 67 -1 67
Width: 164
VWidth: 2048
Flags: HW
HStem: -409 15 -94 15 221 15 536 15
LayerCount: 2
Fore
SplineSet
0 -10.0078 m 1
 0 126.332 l 1
 66.126 106.494 123.654 117.841 142 132 c 1
 142 149 l 1
 137.5 161 112 176 76 176 c 0
 46.5 176 15 171.156 0 160.5 c 1
 0 304 l 1
 20 315 49.417 320 82 320 c 0
 114.583 320 151 312 164 299 c 1
 164 -6 l 1
 153 -16 131.5 -22.5 96.5 -22.5 c 0
 60.5 -22.5 16.0068 -16.5 0 -10.0078 c 1
EndSplineSet
Validated: 33
EndChar

StartChar: _0062
Encoding: 68 -1 68
Width: 85
VWidth: 2048
Flags: HW
HStem: 854.5 15 539.5 15 224.5 15 -90.5 15
LayerCount: 2
Fore
SplineSet
63 412.5 m 5
 63 412.5 85 405.5 85 400.5 c 6
 85 -36 l 1
 78 -52.5 -0.329102 -8.0752 0 10.5 c 1
 0.279297 20.5 0 160.5 3 170.5 c 1
 25 160.5 59 129.5 63 140 c 1
 63 412.5 l 5
EndSplineSet
EndChar

StartChar: _0065
Encoding: 69 -1 69
Width: 85
VWidth: 2048
Flags: HW
HStem: -409 15 -94 15 221 15 536 15
LayerCount: 2
Fore
SplineSet
63 -270 m 5
 63 -7 l 1
 59 3.5 25 -27.5 3 -37.5 c 1
 0 -27.5 0.279297 112.5 0 122.5 c 1
 -0.329102 141.075 78 185.5 85 169 c 1
 85 -258 l 6
 85 -263 63 -270 63 -270 c 5
EndSplineSet
Validated: 33
EndChar

StartChar: _0039
Encoding: 70 -1 70
Width: 99
VWidth: 1594
Flags: W
HStem: -652.764 23.94 -150.024 23.94 352.716 23.94 855.456 23.94
LayerCount: 2
Fore
SplineSet
22.3555 -69.8779 m 4
 9.58691 -69.8779 0.0117188 -57.1094 0.0117188 -45.9365 c 4
 0.0117188 -42.7461 0.0117188 -37.958 3.2041 -34.7656 c 5
 46.2949 56.207 l 6
 51.083 64.1865 60.6602 70.5713 71.8311 70.5713 c 4
 87.792 70.5713 98.9629 56.207 98.9629 41.8418 c 4
 98.9629 37.0547 98.9629 32.2666 95.7705 29.0742 c 5
 43.1035 -57.1094 l 5
 39.9111 -65.0898 31.9316 -69.8779 22.3555 -69.8779 c 4
EndSplineSet
Validated: 1
EndChar

StartChar: _0069
Encoding: 71 -1 71
Width: 99
VWidth: 1594
Flags: W
HStem: -652.764 23.94 -150.024 23.94 352.716 23.94 855.456 23.94
LayerCount: 2
Fore
SplineSet
0.0595703 46.2236 m 4
 0.0595703 57.3965 9.63477 70.165 22.4033 70.165 c 4
 31.9795 70.165 39.959 65.377 43.1514 57.3965 c 5
 95.8184 -28.7871 l 5
 99.0107 -31.9795 99.0107 -36.7676 99.0107 -41.5547 c 4
 99.0107 -55.9199 87.8398 -70.2842 71.8789 -70.2842 c 4
 60.708 -70.2842 51.1309 -63.8994 46.3428 -55.9199 c 6
 3.25195 35.0527 l 5
 0.0595703 38.2451 0.0595703 43.0332 0.0595703 46.2236 c 4
EndSplineSet
Validated: 1
EndChar

StartChar: _0070
Encoding: 72 -1 72
Width: 125
VWidth: 1583
Flags: W
HStem: -664.386 23.94 -161.646 23.94 341.094 23.94 843.834 23.94
LayerCount: 2
Fore
SplineSet
95.7607 -11.6357 m 1
 95.7607 7.51758 81.3955 21.8809 62.2441 21.8809 c 0
 43.0928 21.8809 28.7275 7.51758 28.7275 -11.6357 c 1
 0 -11.6357 l 1
 0 23.4766 27.1318 50.6104 62.2441 50.6104 c 0
 97.3564 50.6104 124.488 23.4766 124.488 -11.6357 c 1
 95.7607 -11.6357 l 1
EndSplineSet
Validated: 1
EndChar

StartChar: _0038
Encoding: 73 -1 73
Width: 124
VWidth: 1606
Flags: W
HStem: -641.142 23.94 -138.402 23.94 364.338 23.94 867.078 23.94
LayerCount: 2
Fore
SplineSet
95.5166 11.623 m 1
 124.244 11.623 l 1
 124.244 -23.4893 97.1123 -50.623 62 -50.623 c 0
 26.8877 -50.623 -0.244141 -23.4893 -0.244141 11.623 c 1
 28.4834 11.623 l 1
 28.4834 -7.53027 42.8486 -21.8936 62 -21.8936 c 0
 81.1514 -21.8936 95.5166 -7.53027 95.5166 11.623 c 1
EndSplineSet
Validated: 1
EndChar

StartChar: _0037
Encoding: 74 -1 74
Width: 124
VWidth: 1594
Flags: W
HStem: -652.764 23.94 -150.024 23.94 352.716 23.94 855.456 23.94
LayerCount: 2
Fore
SplineSet
62 -33.5166 m 0
 79.5557 -33.5166 95.5166 -19.1514 95.5166 0 c 0
 95.5166 17.5557 81.1514 33.5166 62 33.5166 c 0
 44.4443 33.5166 28.4834 19.1514 28.4834 0 c 0
 28.4834 -17.5557 42.8486 -33.5166 62 -33.5166 c 0
62 62.2441 m 0
 95.5166 62.2441 124.244 36.708 124.244 0 c 0
 124.244 -33.5166 98.708 -62.2441 62 -62.2441 c 0
 28.4834 -62.2441 -0.244141 -36.708 -0.244141 0 c 0
 -0.244141 33.5166 25.292 62.2441 62 62.2441 c 0
EndSplineSet
Validated: 1
EndChar

StartChar: _0003
Encoding: 75 -1 75
Width: 140
VWidth: 2048
Flags: HW
HStem: -409 15 -94 15 221 15 536 15
LayerCount: 2
Fore
SplineSet
73.3856 10.4303 m 0
 12.4997 10.4303 0 62.7754 0 74.5 c 10
 0 380.5 l 18
 0 394.312 18.5673 441.934 81.3177 441.934 c 0
 111.557 441.934 132.903 430.095 140 424.5 c 1
 140 401.58 140.417 369.616 140.417 342.092 c 0
 140.417 314.577 140 291.499 138.334 286.333 c 1
 118.207 290.64 98.6118 291.966 83.3983 291.966 c 0
 69.1332 291.966 58.7204 290.8 55.333 289.834 c 0
 18.8457 279.427 23 236.667 22 236.667 c 9
 22 224.161 l 18
 22.6202 167.595 66.2553 167.582 90.2055 167.582 c 0
 103.99 167.582 120.671 168.874 138.334 173 c 1
 140 170.334 140.417 134.093 140.417 98.5133 c 0
 140.417 62.9229 140 27.9941 140 27.9941 c 2
 140 20.3418 110.727 10.4303 73.3856 10.4303 c 0
EndSplineSet
Validated: 1
EndChar

StartChar: _0004
Encoding: 76 -1 76
Width: 321
VWidth: 2048
Flags: HW
HStem: -409 15 -94 15 221 15 536 15
LayerCount: 2
Fore
SplineSet
129.995 131.999 m 1
 129.999 154.667 114.666 168.334 84 169 c 1
 49 169 15 165.5 0 155 c 1
 0 312 l 1
 21 324 56.4727 327.644 93 325 c 24
 117.775 323.207 135.499 320.499 151.999 300.999 c 9
 151.999 140.999 l 0
 151.999 133.666 152 -54.666 152 -58 c 1
 133.333 -57.999 129.995 -53.626 129.995 -53.626 c 25
 129.995 131.999 l 1
181 389.006 m 17
 181 409.173 215.718 432.9 241 434.506 c 0
 283 437.173 312.333 425.839 321 419.006 c 1
 321 373.173 322.667 291.173 319.334 280.839 c 1
 280.334 289.185 243.333 286.337 236.333 284.34 c 0
 199.846 273.933 204 231.173 203 231.173 c 10
 203 218.667 l 18
 203 218.667 203.499 173.008 236.667 165.171 c 0
 244.374 163.351 279.334 158.163 319.334 167.506 c 1
 322.667 162.173 321 22.5 321 22.5 c 17
 321 14.1729 269.289 4.4375 244.333 5.17578 c 0
 209 6.21973 181 29.1729 181 52.5059 c 9
 181 389.006 l 17
EndSplineSet
EndChar

StartChar: _0016
Encoding: 77 -1 77
Width: 108
VWidth: 2048
Flags: W
HStem: -409 15 -94 15 221 15 536 15
LayerCount: 2
Fore
SplineSet
0 -14 m 9
 37 76 l 17
 40.6667 82.3333 45.2422 87.001 54.0029 87 c 0
 63 86.999 68 82 71 76 c 13
 108 -16 l 17
 108 -21.1426 103.333 -22.333 99.002 -23.5 c 0
 90.8721 -25.6895 82.8571 -23.1429 80 -18 c 9
 54 40.999 l 25
 54 40.999 30.6667 -12 28 -18 c 1
 23.166 -24.5 16.5 -25.5 9 -23.5 c 0
 4.59668 -22.3252 0 -18.6667 0 -14 c 9
EndSplineSet
Validated: 33
EndChar

StartChar: _0034
Encoding: 78 -1 78
Width: 164
VWidth: 2048
Flags: HW
HStem: 517 15 202 15 -113 15 -428 15
LayerCount: 2
Fore
SplineSet
25.5 22.5 m 5
 38.5 31 67.04 31.5 83 31.5 c 4
 98.96 31.5 126.5 29 138.5 23 c 5
 138.5 132 l 5
 123.681 138.84 97.1006 141 80 141 c 4
 64.04 141 40.3193 137.84 25.5 131 c 5
 25.5 22.5 l 5
82 166 m 24
 114.583 166 144 158 164 150 c 9
 164 -10 l 0
 149 0.958008 118 9 82 9 c 0
 47 9 15 0.65625 0 -10 c 1
 0 150 l 1
 20 161 49.417 166 82 166 c 24
EndSplineSet
Validated: 1
EndChar

StartChar: _0035
Encoding: 79 -1 79
Width: 266
VWidth: 2048
Flags: HW
HStem: -409 15 -94 15 221 15 536 15
LayerCount: 2
Fore
SplineSet
266.006 -10.6602 m 6
 266.006 -16.3604 258.371 -20.6602 252.672 -20.6602 c 4
 246.972 -20.6602 240.672 -14.7061 240.672 -9.00586 c 6
 240.818 170.681 l 6
 240.818 176.381 247.639 181.341 253.339 181.341 c 4
 259.038 181.341 265.913 174.727 265.913 169.026 c 6
 266.006 -10.6602 l 6
25.334 -9.33398 m 2
 25.334 -15.0342 17.6992 -19.334 12 -19.334 c 0
 6.2998 -19.334 0 -13.3799 0 -7.67969 c 2
 0.146484 172.007 l 2
 0.146484 177.707 6.9668 182.667 12.667 182.667 c 0
 18.3662 182.667 25.2412 176.053 25.2412 170.353 c 2
 25.334 -9.33398 l 2
132.671 170 m 24
 165.254 170 194.671 162 214.671 154 c 9
 214.671 -6 l 0
 199.671 4.95801 168.671 13 132.671 13 c 0
 97.6709 13 65.6709 4.65625 50.6709 -6 c 1
 50.6709 154 l 0
 70.6709 165 100.088 170 132.671 170 c 24
EndSplineSet
Validated: 1
EndChar

StartChar: _0036
Encoding: 80 -1 80
Width: 266
VWidth: 2048
Flags: HW
HStem: -409 15 -94 15 221 15 536 15
LayerCount: 2
Fore
SplineSet
266.006 -10.6602 m 2
 266.006 -16.3604 258.371 -20.6602 252.672 -20.6602 c 0
 246.972 -20.6602 240.672 -14.7061 240.672 -9.00586 c 2
 240.818 170.681 l 2
 240.818 176.381 247.639 181.341 253.339 181.341 c 0
 259.038 181.341 265.913 174.727 265.913 169.026 c 2
 266.006 -10.6602 l 2
25.334 -9.33398 m 2
 25.334 -15.0342 17.6992 -19.334 12 -19.334 c 0
 6.2998 -19.334 0 -13.3799 0 -7.67969 c 2
 0.146484 172.007 l 2
 0.146484 177.707 6.9668 182.667 12.667 182.667 c 0
 18.3662 182.667 25.2412 176.053 25.2412 170.353 c 2
 25.334 -9.33398 l 2
76.8408 23 m 5
 89.8408 31.5 118.381 32 134.341 32 c 4
 150.301 32 177.841 29.5 189.841 23.5 c 5
 189.841 132.5 l 5
 175.021 139.34 148.441 141.5 131.341 141.5 c 4
 115.381 141.5 91.6602 138.34 76.8408 131.5 c 5
 76.8408 23 l 5
134.005 168 m 24
 166.588 168 196.005 160 216.005 152 c 9
 216.005 -8 l 0
 201.005 2.95801 170.005 11 134.005 11 c 0
 99.0049 11 67.0049 2.65625 52.0049 -8 c 1
 52.0049 152 l 0
 72.0049 163 101.422 168 134.005 168 c 24
EndSplineSet
Validated: 1
EndChar

StartChar: phigh
Encoding: 81 -1 81
Width: 154
VWidth: 2048
Flags: HW
HStem: -409 15 -94 15 221 15 536 15
LayerCount: 2
Fore
SplineSet
154 -26 m 29
 133 -26 l 4
 129 -14 105 2 71 2 c 4
 44 2 14 -3 0 -14 c 5
 0 142 l 5
 19 153 46 158 77 158 c 28
 108 158 135 150 154 142 c 13
 154 -26 l 29
EndSplineSet
EndChar

StartChar: hepisemusleft
Encoding: 82 -1 82
Width: 1
VWidth: 2048
Flags: HW
HStem: -409 15 -94 15 221 15 536 15
LayerCount: 2
Fore
SplineSet
-2 64 m 25
 0 96 l 25
 1 96 l 25
 1 64 l 25
 -2 64 l 25
EndSplineSet
EndChar

StartChar: hepisemusright
Encoding: 83 -1 83
Width: 2
VWidth: 2048
Flags: HW
HStem: -409 15 -94 15 221 15 536 15
LayerCount: 2
Fore
SplineSet
0 64 m 25
 -1 64 l 25
 -1 96 l 25
 2 96 l 25
 0 64 l 25
EndSplineSet
EndChar

StartChar: mpdeminutus
Encoding: 84 -1 84
Width: 186
VWidth: 2048
Flags: HW
HStem: 486.665 15 171.665 15 -143.335 15 -458.335 15
LayerCount: 2
Fore
SplineSet
186 164 m 5
 186 -30.3359 l 17
 156.02 -64.6641 92 -76.335 37.999 -77.999 c 0
 16.1504 -78.6719 11 -73.001 0 -68.001 c 1
 0 163 l 17
 22 163 l 1
 21.9971 98.165 l 0
 23.5 81.5 37.3945 80.6611 46 81.665 c 0
 106 88.665 164 99 164 131.664 c 0
 164 164 l 1
 186 164 l 5
EndSplineSet
EndChar

StartChar: _0073
Encoding: 85 -1 85
Width: 164
VWidth: 2048
Flags: HW
HStem: -409 15 -94 15 221 15 536 15
LayerCount: 2
Fore
SplineSet
0 146.342 m 1
 0 146.342 13.6667 151 21.999 152.666 c 1
 33.0977 155.382 58.8479 159.316 79.25 158 c 1
 100.746 156.818 123.293 142.362 140 124.791 c 0
 151.56 112.633 160.316 71.7822 164 60.0078 c 9
 164 -96 l 1
 159.353 -83.1748 147.147 -39.1311 132 -24.5741 c 0
 114.552 -7.80614 94.2002 1.92969 76 3 c 0
 41.0605 5.05566 15 0.648438 0 -10.0078 c 1
 0 146.342 l 1
EndSplineSet
EndChar

StartChar: _0072
Encoding: 86 -1 86
Width: 164
VWidth: 2048
Flags: HW
HStem: -409 15 -94 15 221 15 536 15
LayerCount: 2
Fore
SplineSet
0 151.673 m 1
 22 144 l 1
 33.5 139.5 46 137 64 138 c 0
 82.7738 139.043 117.585 160.223 133 177 c 0
 143.667 188.61 159 232 164 251 c 9
 164 79 l 1
 160.674 59.6748 149.336 34.3379 141 24 c 0
 127.283 6.99023 84.9521 -10.4482 64 -12 c 0
 50.0889 -13.0303 12 -14 0 -10 c 1
 0 151.673 l 1
EndSplineSet
EndChar

StartChar: mnbdeminutus
Encoding: 87 -1 87
Width: 186
VWidth: 2048
Flags: HW
HStem: -409 15 -94 15 221 15 536 15
LayerCount: 2
Fore
SplineSet
186 100.001 m 9
 186 -61.999 l 25
 164 -61.999 l 0
 149 -31 106 -12 46 -5 c 0
 37.3936 -3.99609 22.3232 -5.99512 13.3311 -10.999 c 1
 10.6667 -12.6667 2 -19 0 -21.5 c 9
 0 144.666 l 1
 11 149.666 16.1506 155.337 37.999 154.664 c 0
 92 153 156.02 134.329 186 100.001 c 9
EndSplineSet
EndChar

StartChar: mnbpdeminutus
Encoding: 88 -1 88
Width: 186
VWidth: 2048
Flags: HW
HStem: -409 15 -94 15 221 15 536 15
LayerCount: 2
Fore
SplineSet
0 148.165 m 21
 12 136 19.5 117.5 46 120.665 c 0
 105.981 127.829 149 124.665 164 155.664 c 0
 164 189 l 1
 186 189 l 9
 186 -15.3359 l 17
 156.02 -49.6641 92 -61.335 37.999 -62.999 c 0
 16.1504 -63.6719 11 -58.001 0 -53.001 c 1
 0 148.165 l 21
EndSplineSet
EndChar

StartChar: porrectusflexusnb1
Encoding: 89 -1 89
Width: 340
VWidth: 2048
Flags: HW
HStem: -409 15 -94 15 221 15 536 15
LayerCount: 2
Fore
SplineSet
340 3.25 m 5
 340 -143.125 l 6
 340 -145.354 339.69 -144.775 337.76 -144.716 c 4
 187.5 -140.125 136.5 -110 0 -16 c 1
 0 155 l 2
 0 159.739 3.67916 157.34 7 154.75 c 0
 143.49 48.2977 204 -2.125 318 -6 c 5
 334.25 -3.75 336.5 -0.5 340 3.25 c 5
EndSplineSet
EndChar

StartChar: porrectusflexusnb2
Encoding: 90 -1 90
Width: 428
VWidth: 2048
Flags: HW
HStem: -409 15 -94 15 221 15 536 15
LayerCount: 2
Fore
SplineSet
428 -149 m 5
 428 -283.5 l 6
 428 -285.729 427.688 -285.188 425.76 -285.091 c 4
 265 -277 107 -166 0 -16 c 1
 0 155 l 2
 0 159.739 4.76959 158.322 7 154.75 c 0
 98 9 278 -148.625 406 -154 c 5
 422.75 -154.25 424.75 -152.5 428 -149 c 5
EndSplineSet
EndChar

StartChar: porrectusflexusnb3
Encoding: 91 -1 91
Width: 586
VWidth: 2048
Flags: HW
HStem: -409 15 -94 15 221 15 536 15
LayerCount: 2
Fore
SplineSet
586 -306.5 m 5
 586 -445 l 6
 586 -447.229 585.679 -446.792 583.76 -446.591 c 4
 282 -415 86 -170 0 -16 c 1
 0 155 l 2
 0 159.739 5.05344 158.485 7 154.75 c 0
 96 -16 328 -271 564 -315.5 c 5
 582 -317.75 584.25 -310.25 586 -306.5 c 5
EndSplineSet
EndChar

StartChar: porrectusflexusnb4
Encoding: 92 -1 92
Width: 670
VWidth: 2048
Flags: HW
HStem: -409 15 -94 15 221 15 536 15
LayerCount: 2
Fore
SplineSet
670 -434 m 5
 670 -570 l 6
 670 -572.229 669.666 -571.888 667.76 -571.591 c 4
 305 -515 98 -214 0 -16 c 1
 0 155 l 2
 0 159.739 5.13671 158.527 7 154.75 c 0
 109 -52 374 -395 648 -440.5 c 5
 661.75 -442.75 668 -437.75 670 -434 c 5
EndSplineSet
EndChar

StartChar: porrectusflexusnb5
Encoding: 93 -1 93
Width: 931
VWidth: 2048
Flags: HW
HStem: -409 15 -94 15 221 15 536 15
LayerCount: 2
Fore
SplineSet
931 -620.326 m 5
 931 -761 l 6
 931 -763.229 930.646 -762.992 928.76 -762.591 c 4
 315 -632 70 -240 0 -16 c 1
 0 155 l 2
 0 159.739 5.3553 158.627 7 154.75 c 0
 122.5 -117.5 382.5 -511 909 -631 c 5
 919 -633.333 929 -626.667 931 -620.326 c 5
EndSplineSet
EndChar

StartChar: _0074
Encoding: 94 -1 94
Width: 154
VWidth: 2048
Flags: HW
HStem: -409 15 -94 15 221 15 536 15
LayerCount: 2
Fore
SplineSet
76 2 m 1
 55 2 11.2529 0.0615234 0 -14 c 1
 0 142 l 1
 19 153 46.3281 158 77 158 c 24
 107.672 158 135 150 154 142 c 9
 154 -16 l 17
 140 -7.5 132 1.5 76 2 c 1
EndSplineSet
EndChar

StartChar: p2base
Encoding: 95 -1 95
Width: 164
VWidth: 2048
Flags: W
HStem: -409 15 -94 15 221 15 536 15
LayerCount: 2
Fore
SplineSet
164 148.674 m 1
 164 -10.0078 l 1
 144.507 -17.5 131.5 -22.5 96.5 -22.5 c 0
 60.5 -22.5 16.0068 -16.5 0 -10.0078 c 1
 0 143 l 17
 15 138.5 51 129 95 133.5 c 4
 120.543 136.112 134 142.5 141.992 148.668 c 0
 164 148.674 l 1
EndSplineSet
EndChar

StartChar: rvlbase
Encoding: 96 -1 96
Width: 164
VWidth: 2048
Flags: HW
HStem: -409 15 -94 15 221 15 536 15
LayerCount: 2
Fore
SplineSet
141.996 -26.668 m 2
 141.996 -4 112.667 8.66699 82.001 9.33301 c 0
 60.4375 9.49707 50 8 37 0 c 1
 31.417 -1.72852 23.375 -12.125 22 -20 c 1
 0 -20 10.625 -19.875 0 -20 c 1
 0 150 l 1
 20 161 49.417 166 82 166 c 24
 114.583 166 144 158 164 150 c 9
 164 -362.668 l 5
 145.333 -362.667 141.996 -354.293 141.996 -354.293 c 25
 141.996 -26.668 l 2
EndSplineSet
EndChar

StartChar: msdeminutus
Encoding: 97 -1 97
Width: 186
VWidth: 2048
Flags: HW
HStem: -409 15 -94 15 221 15 536 15
LayerCount: 2
Fore
SplineSet
0 148.165 m 17
 12 136 19.5 117.5 46 120.665 c 0
 105.981 127.829 149 124.665 164 155.664 c 0
 164 189 l 1
 186 189 l 9
 186 -15.3359 l 17
 156.02 -49.6641 92 -61.335 37.999 -62.999 c 0
 31.3204 -63.2047 26.2021 -62.8176 22 -62.0382 c 1
 22 -78.5 21.5 -76 22 -93 c 1
 6 -93 13 -93 0 -93 c 1
 0 148.165 l 17
EndSplineSet
EndChar

StartChar: mademinutus
Encoding: 98 -1 98
Width: 186
VWidth: 2048
Flags: HW
HStem: -409 15 -94 15 221 15 536 15
LayerCount: 2
Fore
SplineSet
186 100.001 m 9
 186 -61.999 l 25
 164 -61.999 l 0
 149 -31 106 -12 46 -5 c 0
 37.3936 -3.99609 22.3232 -5.99512 13.3311 -10.999 c 1
 10.6667 -12.6667 2 -19 0 -21.5 c 9
 0 184.5 l 1
 8.5 184.5 9.5 184.5 22 184.5 c 1
 22 171.5 22 176 22 154.5 c 1
 26.1074 155.219 31.5831 154.862 37.999 154.664 c 0
 92 153 156.02 134.329 186 100.001 c 9
EndSplineSet
EndChar

StartChar: _0077
Encoding: 99 -1 99
Width: 164
VWidth: 2048
Flags: HW
HStem: -409 15 -94 15 221 15 536 15
LayerCount: 2
Fore
SplineSet
19.8496 16.5752 m 5
 19.8496 135.925 l 5
 36.1514 143.449 62.2441 146.925 79.7998 146.925 c 4
 98.6104 146.925 127.849 144.549 144.15 137.025 c 5
 144.15 17.125 l 5
 130.95 23.7246 100.656 26.4746 83.0996 26.4746 c 4
 65.5439 26.4746 34.1504 25.9248 19.8496 16.5752 c 5
EndSplineSet
EndChar

StartChar: _0079
Encoding: 100 -1 100
Width: 266
VWidth: 2048
Flags: HW
HStem: -409 15 -94 15 221 15 536 15
LayerCount: 2
Fore
SplineSet
71.1904 17.0752 m 5
 71.1904 136.425 l 5
 87.4922 143.949 113.585 147.425 131.141 147.425 c 4
 149.951 147.425 179.189 145.049 195.491 137.525 c 5
 195.491 17.625 l 5
 182.291 24.2246 151.997 26.9746 134.441 26.9746 c 4
 116.885 26.9746 85.4912 26.4248 71.1904 17.0752 c 5
EndSplineSet
EndChar

StartChar: _0081
Encoding: 101 -1 101
Width: 164
VWidth: 2048
Flags: HW
HStem: -455.484 16.5375 -108.196 16.5375 239.091 16.5375 586.379 16.5375
LayerCount: 2
Fore
SplineSet
18.9785 97.5264 m 17
 57.7871 92.7969 110.287 75.2158 131.338 54.4746 c 1
 146.388 25.7754 144.987 18.7754 145.513 -8.52539 c 1
 85.6631 -2.22461 44.9619 14.084 18.9873 52.375 c 9
 18.9785 97.5264 l 17
EndSplineSet
EndChar

StartChar: _0082
Encoding: 102 -1 102
Width: 201
VWidth: 2048
Flags: HW
HStem: -432.725 15.75 -101.975 15.75 228.775 15.75 559.525 15.75
LayerCount: 2
Fore
SplineSet
182.925 129.025 m 9
 182.925 129.025 183.625 73.0254 182.919 57.626 c 1
 122.019 8.27637 68.4746 9.3252 18.0752 1.97461 c 9
 18.0752 79.6748 l 17
 66.375 115.375 182.925 129.025 182.925 129.025 c 9
EndSplineSet
EndChar

StartChar: odbase
Encoding: 103 -1 103
Width: 164
VWidth: 2048
Flags: HW
HStem: -409 15 -94 15 221 15 536 15
LayerCount: 2
Fore
SplineSet
0 191 m 17
 5.59004 172.99 2.76983 161.341 4.5 146.25 c 1
 10.8533 131.483 21.0542 127.484 32.546 127.484 c 0
 36.7338 127.484 41.0931 128.016 45.5 128.75 c 1
 65.0611 133.274 80.75 159.75 112.25 160 c 1
 133.353 159.548 152 144 164 129.75 c 9
 164 -42 l 17
 150.5 -42 158 -42 142 -42 c 1
 142 -17 142 -26.5 142 -3.5 c 1
 136 9.25 134.579 21.5244 111.665 23.3301 c 1
 79.2109 21.2725 74.165 -3.66992 45.915 -9.16992 c 1
 43.6121 -9.56246 41.2501 -9.74922 38.8707 -9.74922 c 0
 19.8437 -9.74922 -0.300029 2.19241 -0.300029 16.3455 c 0
 -0.300029 17.3307 -0.20241 18.3267 0 19.3301 c 9
 0 191 l 17
EndSplineSet
EndChar

StartChar: _0083
Encoding: 104 -1 104
Width: 22
VWidth: 2048
Flags: HW
HStem: -420 15 -106 15 210 15 524 15
LayerCount: 2
Fore
SplineSet
0 -94 m 29
 0 383 l 29
 22 383 l 29
 22 -94 l 29
 0 -94 l 29
EndSplineSet
EndChar

StartChar: _0084
Encoding: 105 -1 105
Width: 22
VWidth: 2048
Flags: HW
HStem: -420 15 -106 15 210 15 524 15
LayerCount: 2
Fore
SplineSet
0 -246 m 29
 0 231 l 29
 22 231 l 29
 22 -246 l 29
 0 -246 l 29
EndSplineSet
EndChar

StartChar: _0085
Encoding: 106 -1 106
Width: 258
VWidth: 2048
Flags: W
HStem: -409 15 -94 15 221 15 536 15
LayerCount: 2
Fore
SplineSet
0.299805 183 m 0
 0.299805 189.6 6.90039 196.2 13.5 196.2 c 0
 14.5996 196.2 20.0996 195.1 23.4004 190.7 c 2
 101.5 93.9004 l 1
 112.5 107.1 l 1
 58.5996 175.3 l 2
 56.4004 177.5 55.2998 179.7 55.2998 183 c 0
 55.2998 189.6 61.9004 196.2 68.5 196.2 c 0
 69.5996 196.2 75.0996 195.1 78.4004 190.7 c 2
 129 128 l 1
 179.6 190.7 l 2
 182.9 195.1 188.4 196.2 189.5 196.2 c 0
 196.1 196.2 202.7 189.6 202.7 183 c 0
 202.7 179.7 201.6 177.5 199.4 175.3 c 2
 145.5 107.1 l 1
 156.5 93.9004 l 1
 234.6 190.7 l 2
 237.9 195.1 243.4 196.2 244.5 196.2 c 0
 251.1 196.2 257.7 189.6 257.7 183 c 0
 257.7 179.7 256.6 177.5 254.4 175.3 c 2
 173 73 l 1
 254.4 -29.2998 l 2
 256.6 -31.5 257.7 -33.7002 257.7 -37 c 0
 257.7 -43.5996 251.1 -50.2002 244.5 -50.2002 c 0
 243.4 -50.2002 237.9 -49.0996 234.6 -44.7002 c 2
 156.5 52.0996 l 1
 145.5 38.9004 l 1
 199.4 -29.2998 l 2
 201.6 -31.5 202.7 -33.7002 202.7 -37 c 0
 202.7 -43.5996 196.1 -50.2002 189.5 -50.2002 c 0
 188.4 -50.2002 182.9 -49.0996 179.6 -44.7002 c 2
 129 18 l 1
 78.4004 -44.7002 l 2
 75.0996 -49.0996 69.5996 -50.2002 68.5 -50.2002 c 0
 61.9004 -50.2002 55.2998 -43.5996 55.2998 -37 c 0
 55.2998 -33.7002 56.4004 -31.5 58.5996 -29.2998 c 2
 112.5 38.9004 l 1
 101.5 52.0996 l 1
 23.4004 -44.7002 l 2
 20.0996 -49.0996 14.5996 -50.2002 13.5 -50.2002 c 0
 6.90039 -50.2002 0.299805 -43.5996 0.299805 -37 c 0
 0.299805 -33.7002 1.40039 -31.5 3.59961 -29.2998 c 2
 85 73 l 1
 3.59961 175.3 l 2
 1.40039 177.5 0.299805 179.7 0.299805 183 c 0
129 58.7002 m 5
 140 73 l 5
 129 87.2998 l 5
 118 73 l 5
 129 58.7002 l 5
EndSplineSet
EndChar

StartChar: _0086
Encoding: 107 -1 107
Width: 258
VWidth: 2048
Flags: W
HStem: -409 15 -94 15 221 15 536 15
LayerCount: 2
Fore
SplineSet
129 57.2705 m 5
 116.9 73 l 5
 129 88.7295 l 5
 141.1 73 l 5
 129 57.2705 l 5
EndSplineSet
EndChar

StartChar: _0087
Encoding: 108 -1 108
Width: 431
VWidth: 2612
Flags: W
HStem: -409 15 -94 15 221 15 536 15
LayerCount: 2
Fore
SplineSet
19 -54.8037 m 1
 16.5 -56.9473 12.9561 -58.3662 0 -58.5 c 9
 0 201.053 l 17
 7.8623 201.694 12.5 201.553 18.999 199.016 c 1
 19 149.5 l 1
 51 148 160.601 147.9 216.5 147.9 c 0
 272.4 147.9 380 148 412 149.5 c 1
 412.001 199.016 l 1
 418.5 201.553 423.138 201.694 431 201.053 c 9
 431 -58.5 l 17
 418.044 -58.3662 414.5 -56.9473 412 -54.8037 c 1
 412 -7.7998 l 1
 376.5 -6.09961 252.268 -6.09961 215 -6.09961 c 0
 176.867 -6.09961 48.5 -6.09961 19 -7.7998 c 1
 19 -54.8037 l 1
EndSplineSet
EndChar

StartChar: _0088
Encoding: 109 -1 109
Width: 937
VWidth: 2048
Flags: W
HStem: -409 15 -94 15 221 15 536 15
LayerCount: 2
Fore
SplineSet
-1.91563 703.473 m 0
 -1.91563 705.25 -1.33519 707.4 0 710 c 4
 19 747 177.993 895 471 895 c 4
 759.007 895 918 747 937 710 c 4
 938.335 707.4 938.916 705.25 938.916 703.473 c 0
 938.916 695.081 925.968 695 918.439 695 c 2
 918 695 l 6
 909 695 907.881 703.299 899 713 c 4
 780 843 552 864 471 864 c 4
 385 864 157 843 38 713 c 4
 29.1191 703.299 28 695 19 695 c 6
 18.5613 695 l 2
 11.032 695 -1.91563 695.081 -1.91563 703.473 c 0
EndSplineSet
EndChar

StartChar: _0089
Encoding: 110 -1 110
Width: 1006
VWidth: 2048
Flags: W
HStem: 1276 15 961 15 646 15 331 15
LayerCount: 2
Fore
SplineSet
333.6 698 m 0
 252.4 698 200.6 717.6 129.2 717.6 c 0
 36.7998 717.6 17.2002 679.8 7.40039 679.8 c 0
 3.2002 679.8 0.400391 682.6 0.400391 686.8 c 0
 0.400391 693.8 59.2002 742.8 171.2 742.8 c 0
 256.6 742.8 309.8 721.8 384 721.8 c 0
 473.6 721.8 493.2 758.2 503 758.2 c 0
 511.4 758.2 533.8 721.8 622 721.8 c 0
 696.2 721.8 749.4 742.8 834.8 742.8 c 0
 948.2 742.8 1005.6 693.8 1005.6 686.8 c 0
 1005.6 682.6 1002.8 679.8 998.6 679.8 c 0
 988.8 679.8 969.2 717.6 876.8 717.6 c 0
 805.4 717.6 753.6 698 672.4 698 c 0
 610.8 698 550.6 710.6 503 748.4 c 1
 455.4 710.6 395.2 698 333.6 698 c 0
EndSplineSet
EndChar

StartChar: _0090
Encoding: 111 -1 111
Width: 591
VWidth: 2048
Flags: W
HStem: -409 15 -94 15 221 15 536 15
LayerCount: 2
Fore
SplineSet
0.0927734 690.474 m 0
 0.0927734 692.251 0.458984 694.4 1.2998 697 c 0
 13.2695 734 95.3994 899 295.1 899 c 0
 489 899 578.13 734 590.1 697 c 0
 590.941 694.4 591.307 692.25 591.307 690.474 c 0
 591.307 682.081 583.15 682 578.406 682 c 2
 578.13 682 l 2
 572.46 682 571.363 690.378 566.16 700 c 0
 511 802 402 872 294.899 872 c 0
 182.399 872 80.3994 802 25.2402 700 c 0
 20.0371 690.378 18.9395 682 13.2695 682 c 2
 12.9932 682 l 2
 8.25 682 0.0927734 682.081 0.0927734 690.474 c 0
EndSplineSet
EndChar

StartChar: _0091
Encoding: 112 -1 112
Width: 187
VWidth: 2048
Flags: HW
HStem: -409 15 -94 15 221 15 536 15
LayerCount: 2
Fore
SplineSet
0 191 m 17
 5.59004 172.99 2.76983 161.341 4.5 146.25 c 1
 10.8533 131.483 21.0542 127.484 32.546 127.484 c 0
 36.7338 127.484 41.0931 128.016 45.5 128.75 c 1
 65.0611 133.274 80.75 159.75 112.25 160 c 1
 133.353 159.548 152 144 164 129.75 c 9
 164 6 l 17
 164 -18 129.176 -47.9538 122.5 -47 c 0
 115.5 -46 127 -33 128.5 -28 c 0
 129.169 -25.7715 142 -5.5 139 0 c 1
 133 12.75 134.579 21.5244 111.665 23.3301 c 1
 79.2109 21.2725 74.165 -3.66992 45.915 -9.16992 c 1
 43.6121 -9.56246 41.2501 -9.74922 38.8707 -9.74922 c 0
 19.8437 -9.74922 -0.300029 2.19241 -0.300029 16.3455 c 0
 -0.300029 17.3307 -0.20241 18.3267 0 19.3301 c 9
 0 191 l 17
EndSplineSet
EndChar

StartChar: obase4
Encoding: 113 -1 113
Width: 164
VWidth: 2048
Flags: HW
HStem: -7 134<85.3918 159.695>
VStem: 0 22<-36 21.2824> 160 4<142.682 190.161>
LayerCount: 2
Fore
SplineSet
52 160 m 0
 89.7924 160 99.2244 127 131 127 c 0
 143 127 153 131 160 146 c 0
 160.174 148.617 160.227 151.142 160.217 153.582 c 0
 160.169 153.582 160.052 155.744 160.052 159.159 c 0
 160.052 166.864 160.65 180.951 164 191 c 1
 164 19 l 2
 164 5 144 -7 125 -7 c 0
 91.0991 -7 87.4545 26 52 26 c 0
 41 26 30 21 22 16 c 1
 22 -36 l 1
 0 -36 l 1
 0 130 l 1
 12 144 31 160 52 160 c 0
EndSplineSet
EndChar

StartChar: obase8
Encoding: 114 -1 114
Width: 164
VWidth: 2048
Flags: HW
HStem: -24 184
VStem: 0 22<-24 21.2824> 142 22<129.591 157>
LayerCount: 2
Fore
SplineSet
125.721 -6.68724 m 0
 90.7055 -6.68724 87.8 26 52 26 c 0
 41 26 30 21 22 16 c 1
 22 -24 l 1
 0 -24 l 1
 0 130 l 1
 12 144 31 160 52 160 c 0
 83 160 99 133 118 129 c 0
 135 126 139 135 142 142 c 1
 142 157 l 1
 164 157 l 1
 164 22 l 2
 164 6.09481 145.261 -6.68724 125.721 -6.68724 c 0
EndSplineSet
EndChar

StartChar: _0092
Encoding: 115 -1 115
Width: 164
VWidth: 2048
Flags: HW
HStem: -409 15 -94 15 221 15 536 15
LayerCount: 2
Fore
SplineSet
0 146.001 m 1
 17.2 154.4 55.9994 159.987 79.25 158 c 0
 100.746 156.818 123.293 142.362 140 124.791 c 0
 151.56 112.633 160.316 71.7822 164 60.0078 c 1
 164 -96 l 1
 159.353 -83.1748 147.147 -39.1311 132 -24.5741 c 0
 103.419 2.8928 65.0646 10.4336 22 -1.2002 c 1
 22 -212.293 l 1
 22 -212.293 18.667 -220.667 0 -220.668 c 1
 0 146.001 l 1
EndSplineSet
EndChar

StartChar: _0093
Encoding: 116 -1 116
Width: 164
VWidth: 2048
Flags: HWO
HStem: -409 15 -94 15 221 15 536 15
LayerCount: 2
Fore
SplineSet
0 146.001 m 1
 17.2 154.4 55.9994 159.987 79.25 158 c 0
 100.746 156.818 123.293 142.362 140 124.791 c 0
 151.56 112.633 160.316 71.7822 164 60.0078 c 1
 164 -96 l 1
 159.353 -83.1748 147.147 -39.1311 132 -24.5741 c 0
 103.419 2.8928 65.0646 10.4336 22 -1.2002 c 1
 22 -356.293 l 5
 22 -356.293 18.667 -364.667 0 -364.668 c 5
 0 146.001 l 1
EndSplineSet
EndChar

